<mxfile host="65bd71144e">
    <diagram id="gEnQ6wYq1LJlGPUoVU63" name="Страница 1">
        <mxGraphModel dx="1178" dy="531" grid="1" gridSize="10" guides="1" tooltips="1" connect="1" arrows="1" fold="1" page="1" pageScale="1" pageWidth="827" pageHeight="1169" math="0" shadow="0">
            <root>
                <mxCell id="0"/>
                <mxCell id="1" parent="0"/>
                <mxCell id="2" value="" style="shape=folder;fontStyle=1;tabWidth=80;tabHeight=30;tabPosition=left;html=1;boundedLbl=1;" parent="1" vertex="1">
                    <mxGeometry x="137" y="143" width="250" height="140" as="geometry"/>
                </mxCell>
                <mxCell id="3" value="ModelsInteraction" style="fontStyle=0;fontSize=15;" parent="1" vertex="1">
                    <mxGeometry x="157" y="193" width="210" height="60" as="geometry"/>
                </mxCell>
                <mxCell id="4" value="UI/UX &lt;br&gt;интерфейс" style="text;html=1;align=center;verticalAlign=middle;resizable=0;points=[];autosize=1;strokeColor=none;fillColor=none;" parent="1" vertex="1">
                    <mxGeometry x="137" y="143" width="80" height="30" as="geometry"/>
                </mxCell>
                <mxCell id="48" value="" style="group;labelPosition=center;verticalLabelPosition=top;align=center;verticalAlign=bottom;" vertex="1" connectable="0" parent="1">
                    <mxGeometry x="137" y="353" width="250" height="280" as="geometry"/>
                </mxCell>
                <mxCell id="44" value="" style="shape=folder;fontStyle=1;tabWidth=80;tabHeight=30;tabPosition=left;html=1;boundedLbl=1;" vertex="1" parent="48">
                    <mxGeometry width="250" height="279.99999999999994" as="geometry"/>
                </mxCell>
                <mxCell id="46" value="&lt;&lt;Interface&gt;&gt;" style="fontStyle=0;fontSize=10;labelPosition=center;verticalLabelPosition=middle;align=center;verticalAlign=top;" vertex="1" parent="48">
                    <mxGeometry x="20" y="56.35" width="210" height="67.31" as="geometry"/>
                </mxCell>
                <mxCell id="47" value="Бизнес-&lt;br&gt;логика" style="text;html=1;align=center;verticalAlign=middle;resizable=0;points=[];autosize=1;strokeColor=none;fillColor=none;" vertex="1" parent="48">
                    <mxGeometry x="10" width="60" height="30" as="geometry"/>
                </mxCell>
                <mxCell id="49" value="ModelingServiceImpl" style="fontStyle=0;fontSize=15;" vertex="1" parent="48">
                    <mxGeometry x="20" y="180" width="210" height="62.84" as="geometry"/>
                </mxCell>
                <mxCell id="51" value="ModelingService" style="text;html=1;align=center;verticalAlign=middle;resizable=0;points=[];autosize=1;strokeColor=none;fillColor=none;fontSize=15;" vertex="1" parent="48">
                    <mxGeometry x="59" y="88" width="130" height="20" as="geometry"/>
                </mxCell>
                <mxCell id="57" value="" style="endArrow=block;startArrow=none;endFill=0;startFill=0;endSize=8;html=1;verticalAlign=bottom;dashed=1;labelBackgroundColor=none;fontSize=15;exitX=0.5;exitY=0;exitDx=0;exitDy=0;entryX=0.5;entryY=1;entryDx=0;entryDy=0;" edge="1" parent="48" source="49" target="46">
                    <mxGeometry width="160" relative="1" as="geometry">
                        <mxPoint x="280" y="190" as="sourcePoint"/>
                        <mxPoint x="440" y="190" as="targetPoint"/>
                    </mxGeometry>
                </mxCell>
                <mxCell id="50" value="- Набор задач пользователя&lt;br style=&quot;font-size: 12px&quot;&gt;- Элементы управления системой&lt;br style=&quot;font-size: 12px&quot;&gt;- Навигация между блоками системы&lt;br style=&quot;font-size: 12px&quot;&gt;- Дизайн экранов программы&lt;br style=&quot;font-size: 12px&quot;&gt;- Устройства и технологии ввода данных&lt;br style=&quot;font-size: 12px&quot;&gt;- Обратная связь с пользователем&lt;br style=&quot;font-size: 12px&quot;&gt;- Порядок использования программы и её&lt;br style=&quot;font-size: 12px&quot;&gt;документация" style="text;html=1;align=left;verticalAlign=middle;resizable=0;points=[];autosize=1;strokeColor=none;fillColor=none;fontSize=12;" vertex="1" parent="1">
                    <mxGeometry x="417" y="173" width="250" height="120" as="geometry"/>
                </mxCell>
                <mxCell id="52" value="ModelingService: интерфейс, определяющий&lt;br&gt;бизнес-логику, связанную с созданием&lt;br&gt;&lt;div style=&quot;&quot;&gt;&lt;span&gt;&amp;nbsp;и взаимодействием с 3D-моделями.&lt;/span&gt;&lt;/div&gt;" style="text;html=1;align=left;verticalAlign=middle;resizable=0;points=[];autosize=1;strokeColor=none;fillColor=none;fontSize=15;" vertex="1" parent="1">
                    <mxGeometry x="417" y="413" width="330" height="60" as="geometry"/>
                </mxCell>
                <mxCell id="53" value="ModelingServiceImpl: реализация&amp;nbsp;создания&lt;br&gt;&lt;div&gt;&lt;span&gt;&amp;nbsp;и взаимодействия с 3D-моделями.&lt;/span&gt;&lt;/div&gt;" style="text;html=1;align=left;verticalAlign=middle;resizable=0;points=[];autosize=1;strokeColor=none;fillColor=none;fontSize=15;" vertex="1" parent="1">
                    <mxGeometry x="417" y="543" width="310" height="40" as="geometry"/>
                </mxCell>
                <mxCell id="54" value="&amp;lt;&amp;lt;использует&amp;gt;&amp;gt;" style="endArrow=open;html=1;rounded=0;align=center;verticalAlign=bottom;dashed=1;endFill=0;labelBackgroundColor=none;fontSize=15;exitX=0.5;exitY=1;exitDx=0;exitDy=0;" edge="1" parent="1" source="3" target="46">
                    <mxGeometry relative="1" as="geometry">
                        <mxPoint x="297" y="453" as="sourcePoint"/>
                        <mxPoint x="457" y="453" as="targetPoint"/>
                    </mxGeometry>
                </mxCell>
                <mxCell id="58" value="ProjectsRepository — интерфейс, определяющий&lt;br&gt;порядок доступа к информации о сохраненных &lt;br&gt;проектах в хранилище.&lt;br&gt;&lt;br&gt;JdbcProjectRepository — реализация интерфейса&lt;br&gt;хранилища.&amp;nbsp;" style="text;html=1;align=left;verticalAlign=middle;resizable=0;points=[];autosize=1;strokeColor=none;fillColor=none;fontSize=15;" vertex="1" parent="1">
                    <mxGeometry x="417" y="803" width="360" height="110" as="geometry"/>
                </mxCell>
                <mxCell id="59" value="" style="group;labelPosition=center;verticalLabelPosition=top;align=center;verticalAlign=bottom;" vertex="1" connectable="0" parent="1">
                    <mxGeometry x="136" y="753" width="250" height="280" as="geometry"/>
                </mxCell>
                <mxCell id="60" value="" style="shape=folder;fontStyle=1;tabWidth=80;tabHeight=30;tabPosition=left;html=1;boundedLbl=1;" vertex="1" parent="59">
                    <mxGeometry width="250" height="279.99999999999994" as="geometry"/>
                </mxCell>
                <mxCell id="61" value="&lt;&lt;Interface&gt;&gt;" style="fontStyle=0;fontSize=10;labelPosition=center;verticalLabelPosition=middle;align=center;verticalAlign=top;" vertex="1" parent="59">
                    <mxGeometry x="20" y="56.35" width="210" height="67.31" as="geometry"/>
                </mxCell>
                <mxCell id="62" value="Данные" style="text;html=1;align=center;verticalAlign=middle;resizable=0;points=[];autosize=1;strokeColor=none;fillColor=none;" vertex="1" parent="59">
                    <mxGeometry x="10" y="5" width="60" height="20" as="geometry"/>
                </mxCell>
                <mxCell id="63" value="JdbcProjectRepository" style="fontStyle=0;fontSize=15;" vertex="1" parent="59">
                    <mxGeometry x="20" y="180" width="210" height="62.84" as="geometry"/>
                </mxCell>
                <mxCell id="64" value="&lt;span style=&quot;text-align: left&quot;&gt;ProjectRepository&lt;/span&gt;" style="text;html=1;align=center;verticalAlign=middle;resizable=0;points=[];autosize=1;strokeColor=none;fillColor=none;fontSize=15;" vertex="1" parent="59">
                    <mxGeometry x="59" y="88" width="130" height="20" as="geometry"/>
                </mxCell>
                <mxCell id="65" value="" style="endArrow=block;startArrow=none;endFill=0;startFill=0;endSize=8;html=1;verticalAlign=bottom;dashed=1;labelBackgroundColor=none;fontSize=15;exitX=0.5;exitY=0;exitDx=0;exitDy=0;entryX=0.5;entryY=1;entryDx=0;entryDy=0;" edge="1" parent="59" source="63" target="61">
                    <mxGeometry width="160" relative="1" as="geometry">
                        <mxPoint x="280" y="190" as="sourcePoint"/>
                        <mxPoint x="440" y="190" as="targetPoint"/>
                    </mxGeometry>
                </mxCell>
                <mxCell id="68" value="&amp;lt;&amp;lt;использует&amp;gt;&amp;gt;" style="endArrow=open;html=1;rounded=0;align=center;verticalAlign=bottom;dashed=1;endFill=0;labelBackgroundColor=none;fontSize=15;entryX=0.5;entryY=0;entryDx=0;entryDy=0;" edge="1" parent="1" source="49" target="61">
                    <mxGeometry relative="1" as="geometry">
                        <mxPoint x="267" y="713" as="sourcePoint"/>
                        <mxPoint x="327" y="723" as="targetPoint"/>
                    </mxGeometry>
                </mxCell>
                <mxCell id="105" value="" style="group" vertex="1" connectable="0" parent="1">
                    <mxGeometry x="60" y="1190" width="470" height="530" as="geometry"/>
                </mxCell>
                <mxCell id="80" value="&lt;p style=&quot;margin: 0px ; margin-top: 6px ; text-align: center&quot;&gt;&lt;span style=&quot;font-size: 12px&quot;&gt;UI/UX&amp;nbsp;&amp;nbsp;&lt;/span&gt;&lt;span style=&quot;font-size: 12px&quot;&gt;интерфейс&lt;/span&gt;&lt;br&gt;&lt;/p&gt;" style="align=left;overflow=fill;html=1;dropTarget=0;fontSize=15;" vertex="1" parent="105">
                    <mxGeometry width="470" height="530" as="geometry"/>
                </mxCell>
                <mxCell id="81" value="" style="shape=component;jettyWidth=8;jettyHeight=4;fontSize=15;" vertex="1" parent="80">
                    <mxGeometry x="1" width="20" height="20" relative="1" as="geometry">
                        <mxPoint x="-24" y="4" as="offset"/>
                    </mxGeometry>
                </mxCell>
                <mxCell id="79" value="" style="shape=module;align=left;spacingLeft=20;align=center;verticalAlign=top;fontSize=14;" vertex="1" parent="105">
                    <mxGeometry x="25" y="38.5" width="415" height="67" as="geometry"/>
                </mxCell>
                <mxCell id="82" value="" style="shape=module;align=left;spacingLeft=20;align=center;verticalAlign=top;fontSize=15;" vertex="1" parent="105">
                    <mxGeometry x="27.5" y="160" width="410" height="170" as="geometry"/>
                </mxCell>
                <mxCell id="12" value="" style="group" parent="105" vertex="1" connectable="0">
                    <mxGeometry x="85" y="205" width="340" height="130" as="geometry"/>
                </mxCell>
                <mxCell id="7" value="Элементы управления системой — UX" style="fontStyle=0;fontSize=10;horizontal=1;labelPosition=center;verticalLabelPosition=top;align=center;verticalAlign=bottom;" parent="12" vertex="1">
                    <mxGeometry x="-25" y="-20" width="365" height="130" as="geometry"/>
                </mxCell>
                <mxCell id="9" value="Компоненты интерфейса&#10;● Кнопки, поля ввода&#10;● Навигация между блоками системы" style="fontStyle=0;fontSize=10;fillColor=default;whiteSpace=wrap;align=center;" parent="12" vertex="1">
                    <mxGeometry x="-15" y="-10" width="345" height="40" as="geometry"/>
                </mxCell>
                <mxCell id="10" value="Обратная связь с пользователем&#10;● Логика поведения компонентов интерфейса" style="fontStyle=0;fontSize=10;fillColor=default;whiteSpace=wrap;align=left;" parent="12" vertex="1">
                    <mxGeometry x="-15" y="55" width="345" height="40" as="geometry"/>
                </mxCell>
                <mxCell id="5" value="Дизайн экранов — UI&#10;● Экранные формы&#10;● Вёрстка" style="fontStyle=0;align=center;fillColor=default;fontSize=13;" parent="105" vertex="1">
                    <mxGeometry x="70" y="47" width="355" height="50" as="geometry"/>
                </mxCell>
                <mxCell id="95" value="" style="group" vertex="1" connectable="0" parent="105">
                    <mxGeometry x="214.5" y="117.5" width="36.5" height="42.5" as="geometry"/>
                </mxCell>
                <mxCell id="90" value="" style="group;rotation=90;" vertex="1" connectable="0" parent="95">
                    <mxGeometry x="3" y="-3" width="30.5" height="36.5" as="geometry"/>
                </mxCell>
                <mxCell id="92" value="" style="shape=requiredInterface;html=1;fontSize=11;align=center;fillColor=none;points=[];aspect=fixed;resizable=0;verticalAlign=bottom;labelPosition=center;verticalLabelPosition=top;flipH=1;rotation=90;" vertex="1" parent="90">
                    <mxGeometry x="13" y="13" width="5" height="10" as="geometry"/>
                </mxCell>
                <mxCell id="93" value="" style="group;rotation=-90;" vertex="1" connectable="0" parent="90">
                    <mxGeometry x="0.87" y="29.12" width="29.25" height="8" as="geometry"/>
                </mxCell>
                <mxCell id="74" value="" style="ellipse;html=1;fontSize=11;align=center;fillColor=none;points=[];aspect=fixed;resizable=0;verticalAlign=bottom;labelPosition=center;verticalLabelPosition=top;flipH=1;rotation=-90;" vertex="1" parent="93">
                    <mxGeometry x="10.813636363636364" y="-11" width="8" height="8" as="geometry"/>
                </mxCell>
                <mxCell id="73" value="" style="endArrow=none;html=1;rounded=0;align=center;verticalAlign=top;endFill=0;labelBackgroundColor=none;endSize=2;fontSize=15;" edge="1" target="74" parent="95">
                    <mxGeometry relative="1" as="geometry">
                        <mxPoint x="18.5" y="42.5" as="sourcePoint"/>
                        <Array as="points"/>
                    </mxGeometry>
                </mxCell>
                <mxCell id="97" value="" style="group" vertex="1" connectable="0" parent="105">
                    <mxGeometry x="215.5" y="342.5" width="36.5" height="42.5" as="geometry"/>
                </mxCell>
                <mxCell id="98" value="" style="group;rotation=90;" vertex="1" connectable="0" parent="97">
                    <mxGeometry x="3" y="-3" width="30.5" height="36.5" as="geometry"/>
                </mxCell>
                <mxCell id="99" value="" style="shape=requiredInterface;html=1;fontSize=11;align=center;fillColor=none;points=[];aspect=fixed;resizable=0;verticalAlign=bottom;labelPosition=center;verticalLabelPosition=top;flipH=1;rotation=90;" vertex="1" parent="98">
                    <mxGeometry x="13" y="13" width="5" height="10" as="geometry"/>
                </mxCell>
                <mxCell id="100" value="" style="group;rotation=-90;" vertex="1" connectable="0" parent="98">
                    <mxGeometry x="0.87" y="29.12" width="29.25" height="8" as="geometry"/>
                </mxCell>
                <mxCell id="101" value="" style="ellipse;html=1;fontSize=11;align=center;fillColor=none;points=[];aspect=fixed;resizable=0;verticalAlign=bottom;labelPosition=center;verticalLabelPosition=top;flipH=1;rotation=-90;" vertex="1" parent="100">
                    <mxGeometry x="10.813636363636364" y="-11" width="8" height="8" as="geometry"/>
                </mxCell>
                <mxCell id="102" value="" style="endArrow=none;html=1;rounded=0;align=center;verticalAlign=top;endFill=0;labelBackgroundColor=none;endSize=2;fontSize=15;" edge="1" parent="97" target="101">
                    <mxGeometry relative="1" as="geometry">
                        <mxPoint x="18.5" y="42.5" as="sourcePoint"/>
                        <Array as="points"/>
                    </mxGeometry>
                </mxCell>
                <mxCell id="103" value="" style="endArrow=none;html=1;rounded=0;align=center;verticalAlign=top;endFill=0;labelBackgroundColor=none;endSize=2;fontSize=15;exitX=0.5;exitY=1;exitDx=0;exitDy=0;" edge="1" parent="97" target="99">
                    <mxGeometry relative="1" as="geometry">
                        <mxPoint x="18" y="-13" as="sourcePoint"/>
                    </mxGeometry>
                </mxCell>
                <mxCell id="104" value="" style="shape=module;align=left;spacingLeft=20;align=center;verticalAlign=top;fontSize=15;" vertex="1" parent="105">
                    <mxGeometry x="28.75" y="386.5" width="410" height="123.5" as="geometry"/>
                </mxCell>
                <mxCell id="8" value="Устройства и технологии ввода данных" style="fontStyle=0;align=left;fontSize=10;whiteSpace=wrap;" parent="105" vertex="1">
                    <mxGeometry x="54.5" y="400" width="355.5" height="30" as="geometry"/>
                </mxCell>
                <mxCell id="11" value="API-интеграция с уровнем бизнес-логики" style="fontStyle=0;align=left;fontSize=10;whiteSpace=wrap;" parent="105" vertex="1">
                    <mxGeometry x="54.5" y="446.5" width="355.5" height="43.5" as="geometry"/>
                </mxCell>
                <mxCell id="91" value="" style="endArrow=none;html=1;rounded=0;align=center;verticalAlign=top;endFill=0;labelBackgroundColor=none;endSize=2;fontSize=15;exitX=0.5;exitY=1;exitDx=0;exitDy=0;" edge="1" parent="105" target="92" source="79">
                    <mxGeometry relative="1" as="geometry">
                        <mxPoint x="-507.5" y="504.5" as="sourcePoint"/>
                    </mxGeometry>
                </mxCell>
                <mxCell id="106" value="" style="group" vertex="1" connectable="0" parent="1">
                    <mxGeometry x="60" y="1720" width="470" height="910" as="geometry"/>
                </mxCell>
                <mxCell id="133" value="" style="group" vertex="1" connectable="0" parent="106">
                    <mxGeometry y="13" width="470" height="340" as="geometry"/>
                </mxCell>
                <mxCell id="107" value="&lt;p style=&quot;margin: 0px ; margin-top: 6px ; text-align: center&quot;&gt;&lt;span style=&quot;font-size: 12px&quot;&gt;Бизнес-логика&lt;/span&gt;&lt;/p&gt;" style="align=left;overflow=fill;html=1;dropTarget=0;fontSize=15;" vertex="1" parent="133">
                    <mxGeometry width="470" height="340" as="geometry"/>
                </mxCell>
                <mxCell id="108" value="" style="shape=component;jettyWidth=8;jettyHeight=4;fontSize=15;" vertex="1" parent="107">
                    <mxGeometry x="1" width="20" height="20" relative="1" as="geometry">
                        <mxPoint x="-24" y="4" as="offset"/>
                    </mxGeometry>
                </mxCell>
                <mxCell id="110" value="" style="shape=module;align=left;spacingLeft=20;align=center;verticalAlign=top;fontSize=15;" vertex="1" parent="133">
                    <mxGeometry x="27.5" y="30" width="410" height="170" as="geometry"/>
                </mxCell>
                <mxCell id="111" value="" style="group" vertex="1" connectable="0" parent="133">
                    <mxGeometry x="85" y="75" width="340" height="130" as="geometry"/>
                </mxCell>
                <mxCell id="112" value="Элементы управления системой — UX" style="fontStyle=0;fontSize=10;horizontal=1;labelPosition=center;verticalLabelPosition=top;align=center;verticalAlign=bottom;" vertex="1" parent="111">
                    <mxGeometry x="-25" y="-20" width="365" height="130" as="geometry"/>
                </mxCell>
                <mxCell id="113" value="Бизнес-логика приложения (история действий пользователя, логирование, стандартные действия работы с приложением)" style="fontStyle=0;fontSize=10;fillColor=default;whiteSpace=wrap;align=center;" vertex="1" parent="111">
                    <mxGeometry x="-15" y="-10" width="345" height="40" as="geometry"/>
                </mxCell>
                <mxCell id="114" value="Бизнес-логика предметной области (основная логика программы)" style="fontStyle=0;fontSize=10;fillColor=default;whiteSpace=wrap;align=left;" vertex="1" parent="111">
                    <mxGeometry x="-15" y="55" width="345" height="40" as="geometry"/>
                </mxCell>
                <mxCell id="122" value="" style="group" vertex="1" connectable="0" parent="133">
                    <mxGeometry x="215.5" y="212.5" width="36.5" height="42.5" as="geometry"/>
                </mxCell>
                <mxCell id="123" value="" style="group;rotation=90;" vertex="1" connectable="0" parent="122">
                    <mxGeometry x="3" y="-3" width="30.5" height="36.5" as="geometry"/>
                </mxCell>
                <mxCell id="124" value="" style="shape=requiredInterface;html=1;fontSize=11;align=center;fillColor=none;points=[];aspect=fixed;resizable=0;verticalAlign=bottom;labelPosition=center;verticalLabelPosition=top;flipH=1;rotation=90;" vertex="1" parent="123">
                    <mxGeometry x="13" y="13" width="5" height="10" as="geometry"/>
                </mxCell>
                <mxCell id="125" value="" style="group;rotation=-90;" vertex="1" connectable="0" parent="123">
                    <mxGeometry x="0.87" y="29.12" width="29.25" height="8" as="geometry"/>
                </mxCell>
                <mxCell id="126" value="" style="ellipse;html=1;fontSize=11;align=center;fillColor=none;points=[];aspect=fixed;resizable=0;verticalAlign=bottom;labelPosition=center;verticalLabelPosition=top;flipH=1;rotation=-90;" vertex="1" parent="125">
                    <mxGeometry x="10.813636363636364" y="-11" width="8" height="8" as="geometry"/>
                </mxCell>
                <mxCell id="127" value="" style="endArrow=none;html=1;rounded=0;align=center;verticalAlign=top;endFill=0;labelBackgroundColor=none;endSize=2;fontSize=15;" edge="1" parent="122" target="126">
                    <mxGeometry relative="1" as="geometry">
                        <mxPoint x="18.5" y="42.5" as="sourcePoint"/>
                        <Array as="points"/>
                    </mxGeometry>
                </mxCell>
                <mxCell id="128" value="" style="endArrow=none;html=1;rounded=0;align=center;verticalAlign=top;endFill=0;labelBackgroundColor=none;endSize=2;fontSize=15;exitX=0.5;exitY=1;exitDx=0;exitDy=0;" edge="1" parent="122" target="124">
                    <mxGeometry relative="1" as="geometry">
                        <mxPoint x="18" y="-13" as="sourcePoint"/>
                    </mxGeometry>
                </mxCell>
                <mxCell id="129" value="" style="shape=module;align=left;spacingLeft=20;align=center;verticalAlign=top;fontSize=15;" vertex="1" parent="133">
                    <mxGeometry x="28.75" y="256.5" width="410" height="63.5" as="geometry"/>
                </mxCell>
                <mxCell id="130" value="Прямые вызовы на уровень данных" style="fontStyle=0;align=left;fontSize=10;whiteSpace=wrap;" vertex="1" parent="133">
                    <mxGeometry x="54.5" y="270" width="355.5" height="30" as="geometry"/>
                </mxCell>
                <mxCell id="134" value="" style="group" vertex="1" connectable="0" parent="106">
                    <mxGeometry y="380" width="470" height="530" as="geometry"/>
                </mxCell>
                <mxCell id="135" value="" style="group" vertex="1" connectable="0" parent="134">
                    <mxGeometry y="13" width="470" height="387" as="geometry"/>
                </mxCell>
                <mxCell id="136" value="&lt;p style=&quot;margin: 0px ; margin-top: 6px ; text-align: center&quot;&gt;&lt;span style=&quot;font-size: 12px&quot;&gt;Данные&lt;/span&gt;&lt;/p&gt;" style="align=left;overflow=fill;html=1;dropTarget=0;fontSize=15;" vertex="1" parent="135">
                    <mxGeometry width="470" height="387" as="geometry"/>
                </mxCell>
                <mxCell id="137" value="" style="shape=component;jettyWidth=8;jettyHeight=4;fontSize=15;" vertex="1" parent="136">
                    <mxGeometry x="1" width="20" height="20" relative="1" as="geometry">
                        <mxPoint x="-24" y="4" as="offset"/>
                    </mxGeometry>
                </mxCell>
                <mxCell id="138" value="Данные хранимые в файлах проектов" style="shape=module;align=left;spacingLeft=20;align=center;verticalAlign=top;fontSize=15;" vertex="1" parent="135">
                    <mxGeometry x="27.5" y="28.317073170731707" width="410" height="320.9268292682927" as="geometry"/>
                </mxCell>
                <mxCell id="139" value="" style="group" vertex="1" connectable="0" parent="135">
                    <mxGeometry x="85" y="70.79268292682926" width="340" height="264.29268292682923" as="geometry"/>
                </mxCell>
                <mxCell id="140" value="" style="fontStyle=0;fontSize=10;horizontal=1;labelPosition=center;verticalLabelPosition=top;align=center;verticalAlign=bottom;" vertex="1" parent="139">
                    <mxGeometry x="-25" y="-18.878048780487802" width="365" height="283.17073170731703" as="geometry"/>
                </mxCell>
                <mxCell id="141" value="Данные по освещенности" style="fontStyle=0;fontSize=12;fillColor=default;whiteSpace=wrap;align=left;" vertex="1" parent="139">
                    <mxGeometry x="-15" y="-9.439024390243901" width="345" height="37.756097560975604" as="geometry"/>
                </mxCell>
                <mxCell id="142" value="Координаты точек полигонов и ребер" style="fontStyle=0;fontSize=12;fillColor=default;whiteSpace=wrap;align=left;" vertex="1" parent="139">
                    <mxGeometry x="-15" y="39.64390243902438" width="345" height="37.756097560975604" as="geometry"/>
                </mxCell>
                <mxCell id="152" value="Текстуры" style="fontStyle=0;fontSize=12;fillColor=default;whiteSpace=wrap;align=left;" vertex="1" parent="139">
                    <mxGeometry x="-15" y="96.2780487804878" width="345" height="37.756097560975604" as="geometry"/>
                </mxCell>
                <mxCell id="153" value="Бизнес-логика предметной области (основная логика программы)" style="fontStyle=0;fontSize=12;fillColor=default;whiteSpace=wrap;align=left;" vertex="1" parent="139">
                    <mxGeometry x="-15" y="152.91219512195119" width="345" height="37.756097560975604" as="geometry"/>
                </mxCell>
                <mxCell id="154" value="Перечень всех объектов проекта" style="fontStyle=0;fontSize=12;fillColor=default;whiteSpace=wrap;align=left;" vertex="1" parent="139">
                    <mxGeometry x="-15" y="209.5463414634146" width="345" height="37.756097560975604" as="geometry"/>
                </mxCell>
            </root>
        </mxGraphModel>
    </diagram>
</mxfile>